PathFileType	4	(X/Y/Z)	3_coords_data.trc
DataRate	CameraRate	NumFrames	NumMarkers	Units	OrigDataRate	OrigDataStartFrame	OrigNumFrames
30.0	30.0	8	21	m	30.0	29	48
Frame#	Time	THUMB_TIP	THUMB_IP	THUMB_MCP	THUMB_CMC	INDEX_TIP	INDEX_DIP	INDEX_PIP	INDEX_MCP	MIDDLE_TIP	MIDDLE_DIP	MIDDLE_PIP	MIDDLE_MCP	RING_TIP	RING_DIP	RING_PIP	RING_MCP	PINKY_TIP	PINKY_DIP	PINKY_PIP	PINKY_MCP	WRIST
X1	Y1	Z1	X2	Y2	Z2	X3	Y3	Z3	X4	Y4	Z4	X5	Y5	Z5	X6	Y6	Z6	X7	Y7	Z7	X8	Y8	Z8	X9	Y9	Z9	X10	Y10	Z10	X11	Y11	Z11	X12	Y12	Z12	X13	Y13	Z13	X14	Y14	Z14	X15	Y15	Z15	X16	Y16	Z16	X17	Y17	Z17	X18	Y18	Z18	X19	Y19	Z19	X20	Y20	Z20	X21	Y21	Z21
28	0.9333333333333333	-0.06258710098266601	-0.10000299835205079	0.9579429931640625	-0.07125659942626954	-0.08912210083007813	0.983010009765625	-0.08142549896240234	-0.08297599792480469	1.01377001953125	-0.08848149871826172	-0.0596260986328125	1.04122998046875	-0.05238959884643555	-0.0566151008605957	0.9053090209960938	-0.06456500244140626	-0.058754501342773435	0.9255900268554688	-0.07624620056152344	-0.06042559814453125	0.9470289916992187	-0.08992469787597657	-0.061522598266601565	0.9829719848632813	-0.05001129913330078	-0.03050629997253418	0.9005540161132812	-0.06305189895629883	-0.032847900390625	0.9213319702148437	-0.07781490325927734	-0.03572480010986328	0.9467559814453125	-0.09243879699707032	-0.03940879821777344	0.983010986328125	-0.047238800048828126	-0.005157169818878174	0.9238629760742187	-0.06406259918212891	-0.007232180118560791	0.9383040161132813	-0.08212090301513672	-0.011358799934387208	0.9570780029296875	-0.09530750274658203	-0.020764299392700195	0.9918389892578126	-0.05225080108642578	0.014393300056457519	0.9504019775390625	-0.06684609985351563	0.011258700370788573	0.9633250122070313	-0.07939299774169922	0.006200789928436279	0.9771599731445313	-0.0899072036743164	-0.004430650234222412	1.001989990234375	-0.11215499877929687	-0.03651300048828125	1.06268994140625
29	0.9666666666666667	-0.06241080093383789	-0.1000459976196289	0.9580770263671875	-0.07108350372314454	-0.08912619781494141	0.983083984375	-0.08130480194091796	-0.08299929809570313	1.0139000244140626	-0.08843080139160156	-0.0596531982421875	1.041300048828125	-0.05219649887084961	-0.05662189865112305	0.9053939819335938	-0.06434860229492187	-0.05875370025634766	0.9257160034179688	-0.07602619934082032	-0.06044649887084961	0.9471309814453125	-0.08968450164794922	-0.06149300003051758	0.9829990234375	-0.04984510040283203	-0.030503400802612303	0.9007050170898437	-0.06283330154418945	-0.03287070083618164	0.9214459838867187	-0.0776083984375	-0.03576689910888672	0.9468729858398437	-0.09230130004882812	-0.03940340042114258	0.9830709838867188	-0.0469369010925293	-0.005166009902954101	0.9240869750976562	-0.06380559921264649	-0.007248089790344238	0.9384539794921875	-0.08188169860839843	-0.011370800018310546	0.957219970703125	-0.09515540313720704	-0.02076919937133789	0.9918699951171875	-0.05202119827270508	0.01433080005645752	0.9505469970703125	-0.06667289733886719	0.011221799850463867	0.9634420166015625	-0.0791238021850586	0.0061741299629211426	0.9772520141601563	-0.08973210144042969	-0.004465099811553955	1.0020399780273437	-0.11218399810791016	-0.03644419860839844	1.06293994140625
30	1.0	-0.062318401336669924	-0.09997640228271484	0.958239013671875	-0.07098979949951172	-0.08908509826660156	0.983260986328125	-0.08122560119628906	-0.08292749786376953	1.0140599975585938	-0.08839199829101563	-0.05953379821777344	1.041469970703125	-0.052043701171875	-0.056560001373291015	0.9056160278320312	-0.06420469665527344	-0.0587156982421875	0.9259349975585938	-0.07589610290527343	-0.060393600463867186	0.9473610229492188	-0.08967060089111328	-0.06151200103759766	0.9831929931640625	-0.0497504997253418	-0.0304822998046875	0.9008090209960937	-0.06274079895019531	-0.0328386001586914	0.9215919799804687	-0.07753489685058594	-0.03574670028686523	0.9470659790039062	-0.09221990203857422	-0.03934370040893555	0.983343017578125	-0.04684609985351563	-0.005122799873352051	0.9242130126953125	-0.06367620086669921	-0.007208010196685791	0.9386019897460938	-0.08175289916992187	-0.011366999626159668	0.95735302734375	-0.09511900329589844	-0.020753299713134766	0.99197900390625	-0.05196580123901367	0.014333600044250489	0.9506740112304688	-0.06663580322265625	0.0112322998046875	0.963551025390625	-0.0792240982055664	0.006194399833679199	0.9774190063476562	-0.0897406005859375	-0.004431159973144532	1.0020999755859374	-0.11218299865722656	-0.03624150085449219	1.0631700439453124
31	1.0333333333333334	-0.06222990036010742	-0.09981950378417968	0.9583939819335937	-0.07094049835205078	-0.08897190093994141	0.9834520263671875	-0.08116999816894531	-0.08281179809570313	1.01425	-0.08828269958496093	-0.05943370056152344	1.0416300048828124	-0.051785900115966794	-0.056294601440429685	0.9059580078125	-0.0640625	-0.058503501892089846	0.9261530151367188	-0.07579250335693359	-0.06025199890136719	0.9474439697265625	-0.08948960113525391	-0.061368698120117186	0.9833280029296875	-0.04957329940795899	-0.03030349922180176	0.9010850219726563	-0.06258430099487304	-0.032740501403808596	0.9217789916992187	-0.07748280334472656	-0.035676498413085934	0.9471680297851562	-0.09219950103759765	-0.03927939987182617	0.9833040161132812	-0.04680929946899414	-0.00499314022064209	0.9244390258789063	-0.0636786003112793	-0.00709711980819702	0.9387780151367188	-0.08177610015869141	-0.011247699737548827	0.9574810180664063	-0.09515329742431641	-0.020642900466918947	0.9920809936523437	-0.05210129928588867	0.014443699836730956	0.950802001953125	-0.06666110229492188	0.011348899841308593	0.963677978515625	-0.07935359954833984	0.006313089847564697	0.977489013671875	-0.08983529663085937	-0.004297830104827881	1.0022000122070311	-0.11199500274658203	-0.0363213005065918	1.0631300048828125
32	1.0666666666666667	-0.0616599006652832	-0.09972589874267578	0.958927978515625	-0.0704175033569336	-0.08887570190429687	0.9839320068359375	-0.08072029876708985	-0.08267330169677735	1.0146699829101562	-0.08806490325927735	-0.05927259826660156	1.041989990234375	-0.0509656982421875	-0.055936100006103516	0.9067639770507813	-0.06349420166015625	-0.058287700653076174	0.9267620239257812	-0.07554900360107422	-0.06018740081787109	0.947947021484375	-0.08955860137939453	-0.061514198303222654	0.9838610229492187	-0.04913460159301758	-0.030197500228881836	0.90160302734375	-0.06235150146484375	-0.03265390014648437	0.9222160034179687	-0.07739569854736328	-0.03567900085449219	0.947552978515625	-0.09217350006103515	-0.03939680099487305	0.9836179809570312	-0.046795101165771485	-0.004939080238342285	0.9247899780273438	-0.06368030166625976	-0.007115580081939697	0.9390910034179687	-0.08193340301513671	-0.011358099937438965	0.957656005859375	-0.09534249877929687	-0.0207593994140625	0.9923330078125	-0.052678199768066404	0.014605999946594238	0.95072900390625	-0.06720439910888672	0.011379799842834472	0.9637260131835937	-0.07977459716796875	0.006301809787750244	0.9776179809570312	-0.09022149658203125	-0.004312439918518067	1.0023599853515626	-0.11203099822998047	-0.03615510177612305	1.063489990234375
33	1.1	-0.060046001434326174	-0.0996281967163086	0.9600560302734376	-0.06901830291748047	-0.08872350311279296	0.9848720092773438	-0.07968240356445312	-0.08240879821777344	1.0154400024414063	-0.0872886962890625	-0.05888999938964844	1.0423800048828125	-0.04760430145263672	-0.05519940185546875	0.9092860107421875	-0.06138079833984375	-0.05794829940795899	0.9282830200195312	-0.07455919647216797	-0.06023189926147461	0.9487059936523438	-0.08905919647216796	-0.061915599822998046	0.9844320068359375	-0.046827999114990235	-0.03008690071105957	0.9033049926757812	-0.06072259902954102	-0.032707698822021486	0.9233209838867188	-0.07663919830322266	-0.03594160079956055	0.9480560302734375	-0.09200379943847656	-0.03987839889526367	0.9838839721679687	-0.045917701721191403	-0.005060929775238037	0.9257440185546875	-0.06302870178222657	-0.007330659866333008	0.9396259765625	-0.08164459991455078	-0.011692500114440918	0.9578920288085937	-0.09556710052490235	-0.02110930061340332	0.9924219970703125	-0.053031200408935546	0.014535099983215331	0.9509110107421875	-0.06769000244140624	0.011237500190734863	0.9637020263671875	-0.08028350067138672	0.006121779918670654	0.9774990234375	-0.09094400024414062	-0.004360569953918457	1.0023099975585938	-0.11181600189208984	-0.036114498138427736	1.0636700439453124
34	1.1333333333333333	-0.05598559951782227	-0.09867919921875	0.9620490112304687	-0.06602639770507812	-0.08804640197753906	0.98639697265625	-0.07758820343017578	-0.08179840087890625	1.0166099853515624	-0.0863406982421875	-0.058179298400878904	1.0428800048828124	-0.03928710174560547	-0.05334629821777344	0.9157059936523437	-0.05577780151367188	-0.05681890106201172	0.9318419799804688	-0.07144239807128906	-0.05991849899291992	0.9503380126953125	-0.08815850067138672	-0.06263190078735352	0.985280029296875	-0.038353500366210935	-0.029172599792480467	0.9094450073242187	-0.05484519958496094	-0.0321786994934082	0.9266300048828126	-0.07367539978027343	-0.0360088996887207	0.9493209838867187	-0.09210759735107422	-0.04060060119628906	0.98439599609375	-0.04216910171508789	-0.005705609798431397	0.9290689697265625	-0.06022439956665039	-0.007961080074310303	0.9413980102539062	-0.08010340118408203	-0.01246370029449463	0.9583610229492188	-0.09574469757080079	-0.021724700927734375	0.9925360107421874	-0.05184870147705078	0.01345460033416748	0.9521329956054687	-0.06730619812011719	0.010520299911499024	0.96393701171875	-0.08058390045166015	0.005521349906921387	0.9774000244140625	-0.092033203125	-0.004579880237579346	1.0019400024414062	-0.1120780029296875	-0.03586199951171875	1.0639599609375
35	1.1666666666666667	-0.04884360122680664	-0.09564409637451173	0.9648040161132813	-0.06103549957275391	-0.08608769989013672	0.9885239868164063	-0.07422119903564453	-0.0804833984375	1.0179299926757812	-0.08528179931640625	-0.05706380081176758	1.04331005859375	-0.028204700469970704	-0.050367298126220705	0.9256829833984375	-0.04755989837646484	-0.05478499984741211	0.9375460205078125	-0.06622850036621093	-0.0588744010925293	0.9529390258789062	-0.08674410247802734	-0.06332279968261718	0.9867529907226562	-0.026359399795532226	-0.02753700065612793	0.9205089721679688	-0.04600619888305664	-0.03107010078430176	0.9332269897460937	-0.06880100250244141	-0.03565399932861328	0.9517269897460937	-0.09178289794921875	-0.0412864990234375	0.9849130249023438	-0.035040199279785154	-0.006646399974822998	0.936051025390625	-0.05462649917602539	-0.00874728012084961	0.9453820190429687	-0.07687259674072265	-0.013298100471496582	0.9596300048828125	-0.09574469757080079	-0.022157499313354492	0.99239697265625	-0.04809220123291016	0.011540399551391602	0.95560498046875	-0.06478839874267578	0.009426210403442383	0.9653319702148437	-0.07973770141601562	0.0048691401481628415	0.9773670043945313	-0.0930886001586914	-0.004491789817810059	1.0015700073242189	-0.1121760025024414	-0.03550469970703125	1.0644100341796876
